<mxfile host="app.diagrams.net" modified="2022-11-03T14:51:20.338Z" agent="5.0 (Windows NT 10.0; Win64; x64) AppleWebKit/537.36 (KHTML, like Gecko) Chrome/106.0.0.0 Safari/537.36" etag="2-d8X2UNfI-VJUlheh1S" version="20.5.1" type="github">
  <diagram id="ysa-5UAIZGv6yvmk_Zik" name="Page-1">
    <mxGraphModel dx="1422" dy="762" grid="1" gridSize="10" guides="1" tooltips="1" connect="1" arrows="1" fold="1" page="1" pageScale="1" pageWidth="1169" pageHeight="827" math="0" shadow="0">
      <root>
        <mxCell id="0" />
        <mxCell id="1" parent="0" />
        <mxCell id="R5EZcz4ksub6QIZqY8Q5-1" value="待确认" style="ellipse;whiteSpace=wrap;html=1;fillColor=#CCCCCC;" vertex="1" parent="1">
          <mxGeometry x="500" y="180" width="120" height="80" as="geometry" />
        </mxCell>
        <mxCell id="R5EZcz4ksub6QIZqY8Q5-2" value="待修复" style="ellipse;whiteSpace=wrap;html=1;" vertex="1" parent="1">
          <mxGeometry x="500" y="320" width="120" height="80" as="geometry" />
        </mxCell>
        <mxCell id="R5EZcz4ksub6QIZqY8Q5-3" value="待复测" style="ellipse;whiteSpace=wrap;html=1;" vertex="1" parent="1">
          <mxGeometry x="500" y="460" width="120" height="80" as="geometry" />
        </mxCell>
        <mxCell id="R5EZcz4ksub6QIZqY8Q5-4" value="复测通过" style="ellipse;whiteSpace=wrap;html=1;" vertex="1" parent="1">
          <mxGeometry x="300" y="550" width="120" height="80" as="geometry" />
        </mxCell>
        <mxCell id="R5EZcz4ksub6QIZqY8Q5-5" value="复测不通过" style="ellipse;whiteSpace=wrap;html=1;" vertex="1" parent="1">
          <mxGeometry x="700" y="550" width="120" height="80" as="geometry" />
        </mxCell>
        <mxCell id="R5EZcz4ksub6QIZqY8Q5-6" value="接受风险" style="ellipse;whiteSpace=wrap;html=1;fillColor=#66CC00;" vertex="1" parent="1">
          <mxGeometry x="970" y="336" width="120" height="80" as="geometry" />
        </mxCell>
        <mxCell id="R5EZcz4ksub6QIZqY8Q5-7" value="问题关闭" style="ellipse;whiteSpace=wrap;html=1;fillColor=#66CC00;" vertex="1" parent="1">
          <mxGeometry x="60" y="334" width="120" height="80" as="geometry" />
        </mxCell>
        <mxCell id="R5EZcz4ksub6QIZqY8Q5-8" value="" style="endArrow=classic;html=1;rounded=0;exitX=0.5;exitY=1;exitDx=0;exitDy=0;entryX=0.5;entryY=0;entryDx=0;entryDy=0;" edge="1" parent="1" source="R5EZcz4ksub6QIZqY8Q5-1" target="R5EZcz4ksub6QIZqY8Q5-2">
          <mxGeometry width="50" height="50" relative="1" as="geometry">
            <mxPoint x="560" y="420" as="sourcePoint" />
            <mxPoint x="610" y="370" as="targetPoint" />
          </mxGeometry>
        </mxCell>
        <mxCell id="R5EZcz4ksub6QIZqY8Q5-9" value="" style="endArrow=classic;html=1;rounded=0;exitX=0.5;exitY=1;exitDx=0;exitDy=0;entryX=0.5;entryY=0;entryDx=0;entryDy=0;" edge="1" parent="1" source="R5EZcz4ksub6QIZqY8Q5-2" target="R5EZcz4ksub6QIZqY8Q5-3">
          <mxGeometry width="50" height="50" relative="1" as="geometry">
            <mxPoint x="560" y="420" as="sourcePoint" />
            <mxPoint x="610" y="370" as="targetPoint" />
          </mxGeometry>
        </mxCell>
        <mxCell id="R5EZcz4ksub6QIZqY8Q5-23" value="&lt;b&gt;&lt;font style=&quot;font-size: 14px;&quot;&gt;复测次数大于1&lt;/font&gt;&lt;/b&gt;" style="edgeLabel;html=1;align=center;verticalAlign=middle;resizable=0;points=[];" vertex="1" connectable="0" parent="R5EZcz4ksub6QIZqY8Q5-9">
          <mxGeometry x="-0.3333" y="2" relative="1" as="geometry">
            <mxPoint as="offset" />
          </mxGeometry>
        </mxCell>
        <mxCell id="R5EZcz4ksub6QIZqY8Q5-10" value="" style="endArrow=classic;html=1;rounded=0;exitX=0;exitY=0.5;exitDx=0;exitDy=0;entryX=1;entryY=0.5;entryDx=0;entryDy=0;edgeStyle=orthogonalEdgeStyle;" edge="1" parent="1" source="R5EZcz4ksub6QIZqY8Q5-3" target="R5EZcz4ksub6QIZqY8Q5-4">
          <mxGeometry width="50" height="50" relative="1" as="geometry">
            <mxPoint x="560" y="420" as="sourcePoint" />
            <mxPoint x="610" y="370" as="targetPoint" />
          </mxGeometry>
        </mxCell>
        <mxCell id="R5EZcz4ksub6QIZqY8Q5-11" value="" style="endArrow=classic;html=1;rounded=0;exitX=0.5;exitY=0;exitDx=0;exitDy=0;entryX=1;entryY=0.5;entryDx=0;entryDy=0;edgeStyle=orthogonalEdgeStyle;" edge="1" parent="1" source="R5EZcz4ksub6QIZqY8Q5-4" target="R5EZcz4ksub6QIZqY8Q5-7">
          <mxGeometry width="50" height="50" relative="1" as="geometry">
            <mxPoint x="560" y="520" as="sourcePoint" />
            <mxPoint x="610" y="470" as="targetPoint" />
          </mxGeometry>
        </mxCell>
        <mxCell id="R5EZcz4ksub6QIZqY8Q5-12" value="" style="endArrow=classic;html=1;rounded=0;entryX=0;entryY=0.5;entryDx=0;entryDy=0;exitX=1;exitY=0.5;exitDx=0;exitDy=0;edgeStyle=orthogonalEdgeStyle;" edge="1" parent="1" source="R5EZcz4ksub6QIZqY8Q5-3" target="R5EZcz4ksub6QIZqY8Q5-5">
          <mxGeometry width="50" height="50" relative="1" as="geometry">
            <mxPoint x="630" y="660" as="sourcePoint" />
            <mxPoint x="680" y="610" as="targetPoint" />
          </mxGeometry>
        </mxCell>
        <mxCell id="R5EZcz4ksub6QIZqY8Q5-14" value="" style="endArrow=classic;html=1;rounded=0;exitX=1;exitY=0.5;exitDx=0;exitDy=0;entryX=0;entryY=0.5;entryDx=0;entryDy=0;edgeStyle=orthogonalEdgeStyle;" edge="1" parent="1" source="R5EZcz4ksub6QIZqY8Q5-5" target="R5EZcz4ksub6QIZqY8Q5-6">
          <mxGeometry width="50" height="50" relative="1" as="geometry">
            <mxPoint x="1000" y="470" as="sourcePoint" />
            <mxPoint x="1050" y="420" as="targetPoint" />
          </mxGeometry>
        </mxCell>
        <mxCell id="R5EZcz4ksub6QIZqY8Q5-15" value="" style="endArrow=classic;html=1;rounded=0;entryX=0.992;entryY=0.413;entryDx=0;entryDy=0;entryPerimeter=0;exitX=0.5;exitY=0;exitDx=0;exitDy=0;edgeStyle=orthogonalEdgeStyle;elbow=vertical;" edge="1" parent="1" source="R5EZcz4ksub6QIZqY8Q5-5" target="R5EZcz4ksub6QIZqY8Q5-2">
          <mxGeometry width="50" height="50" relative="1" as="geometry">
            <mxPoint x="560" y="520" as="sourcePoint" />
            <mxPoint x="610" y="470" as="targetPoint" />
          </mxGeometry>
        </mxCell>
        <mxCell id="R5EZcz4ksub6QIZqY8Q5-24" value="&lt;b&gt;复测次数-1&lt;/b&gt;" style="edgeLabel;html=1;align=center;verticalAlign=middle;resizable=0;points=[];fontSize=14;" vertex="1" connectable="0" parent="R5EZcz4ksub6QIZqY8Q5-15">
          <mxGeometry x="-0.2543" relative="1" as="geometry">
            <mxPoint as="offset" />
          </mxGeometry>
        </mxCell>
        <mxCell id="R5EZcz4ksub6QIZqY8Q5-16" value="" style="endArrow=classic;html=1;rounded=0;elbow=vertical;entryX=0;entryY=0.5;entryDx=0;entryDy=0;exitX=0.958;exitY=0.7;exitDx=0;exitDy=0;exitPerimeter=0;edgeStyle=orthogonalEdgeStyle;" edge="1" parent="1" source="R5EZcz4ksub6QIZqY8Q5-2" target="R5EZcz4ksub6QIZqY8Q5-6">
          <mxGeometry width="50" height="50" relative="1" as="geometry">
            <mxPoint x="640" y="420" as="sourcePoint" />
            <mxPoint x="610" y="470" as="targetPoint" />
          </mxGeometry>
        </mxCell>
        <mxCell id="R5EZcz4ksub6QIZqY8Q5-19" value="Unstatble State" style="ellipse;whiteSpace=wrap;html=1;" vertex="1" parent="1">
          <mxGeometry x="1020" y="160" width="70" height="40" as="geometry" />
        </mxCell>
        <mxCell id="R5EZcz4ksub6QIZqY8Q5-21" value="Final State" style="ellipse;whiteSpace=wrap;html=1;fillColor=#66CC00;" vertex="1" parent="1">
          <mxGeometry x="1020" y="110" width="70" height="40" as="geometry" />
        </mxCell>
        <mxCell id="R5EZcz4ksub6QIZqY8Q5-22" value="Init State" style="ellipse;whiteSpace=wrap;html=1;fillColor=#CCCCCC;" vertex="1" parent="1">
          <mxGeometry x="1020" y="60" width="70" height="40" as="geometry" />
        </mxCell>
      </root>
    </mxGraphModel>
  </diagram>
</mxfile>
